<svg width="98" height="20" viewBox="0 0 98 20" fill="none" xmlns="http://www.w3.org/2000/svg">
<path fill-rule="evenodd" clip-rule="evenodd" d="M10 0C15.5228 0 20 4.47715 20 10C20 15.5228 15.5228 20 10 20C4.47715 20 0 15.5228 0 10C0 4.47715 4.47715 0 10 0ZM10 1.625C5.37462 1.625 1.625 5.37462 1.625 10H18.375C18.375 5.37462 14.6254 1.625 10 1.625Z" fill="white"/>
<path fill-rule="evenodd" clip-rule="evenodd" d="M51.3398 7.26465C52.0855 7.26467 52.7315 7.42874 53.2783 7.75684C53.8252 8.08495 54.2476 8.54541 54.5459 9.13867C54.8475 9.73195 54.999 10.4231 54.999 11.2119C54.999 12.0006 54.8475 12.6904 54.5459 13.2803C54.2476 13.87 53.825 14.3292 53.2783 14.6572C52.7316 14.9852 52.0854 15.1494 51.3398 15.1494C50.5941 15.1494 49.9473 14.9854 49.4004 14.6572C48.8537 14.3292 48.4295 13.87 48.1279 13.2803C47.8297 12.6904 47.6807 12.0006 47.6807 11.2119C47.6807 10.4232 47.8297 9.73191 48.1279 9.13867C48.4295 8.54556 48.8537 8.08494 49.4004 7.75684C49.9473 7.42871 50.5941 7.26465 51.3398 7.26465ZM51.3496 8.69141C50.9353 8.69141 50.5905 8.80392 50.3154 9.0293C50.0438 9.25458 49.84 9.55758 49.7041 9.93848C49.5715 10.3163 49.5049 10.7397 49.5049 11.207C49.5049 11.6709 49.5716 12.092 49.7041 12.4697C49.84 12.8474 50.0438 13.1487 50.3154 13.374C50.5905 13.5961 50.9353 13.707 51.3496 13.707C51.754 13.707 52.0925 13.5961 52.3643 13.374C52.6358 13.1487 52.8382 12.8473 52.9707 12.4697C53.1066 12.092 53.1738 11.6709 53.1738 11.207C53.1738 10.7397 53.1066 10.3163 52.9707 9.93848C52.8382 9.55762 52.6358 9.25459 52.3643 9.0293C52.0925 8.80392 51.754 8.69141 51.3496 8.69141Z" fill="white"/>
<path fill-rule="evenodd" clip-rule="evenodd" d="M59.8574 7.26465C60.6031 7.26467 61.2491 7.42874 61.7959 7.75684C62.3428 8.08495 62.7652 8.54541 63.0635 9.13867C63.3651 9.73195 63.5166 10.4231 63.5166 11.2119C63.5166 12.0006 63.3651 12.6904 63.0635 13.2803C62.7652 13.87 62.3426 14.3292 61.7959 14.6572C61.2491 14.9852 60.6029 15.1494 59.8574 15.1494C59.1117 15.1494 58.4648 14.9854 57.918 14.6572C57.3713 14.3292 56.9471 13.87 56.6455 13.2803C56.3472 12.6904 56.1983 12.0006 56.1982 11.2119C56.1982 10.4232 56.3473 9.73191 56.6455 9.13867C56.947 8.54556 57.3713 8.08494 57.918 7.75684C58.4648 7.42871 59.1117 7.26465 59.8574 7.26465ZM59.8672 8.69141C59.4529 8.69141 59.1081 8.80392 58.833 9.0293C58.5614 9.25458 58.3575 9.55758 58.2217 9.93848C58.0891 10.3163 58.0225 10.7397 58.0225 11.207C58.0225 11.6709 58.0891 12.092 58.2217 12.4697C58.3575 12.8474 58.5614 13.1487 58.833 13.374C59.1081 13.5961 59.4529 13.707 59.8672 13.707C60.2715 13.707 60.6101 13.5961 60.8818 13.374C61.1534 13.1487 61.3558 12.8473 61.4883 12.4697C61.6241 12.092 61.6914 11.6709 61.6914 11.207C61.6914 10.7397 61.6242 10.3163 61.4883 9.93848C61.3558 9.55762 61.1534 9.25459 60.8818 9.0293C60.6101 8.80392 60.2715 8.69141 59.8672 8.69141Z" fill="white"/>
<path fill-rule="evenodd" clip-rule="evenodd" d="M93.8311 7.26465C94.3346 7.2647 94.8033 7.34551 95.2373 7.50781C95.6747 7.66687 96.0561 7.90711 96.3809 8.22852C96.7089 8.54993 96.9642 8.95436 97.1465 9.44141C97.3287 9.9252 97.4199 10.4922 97.4199 11.1416V11.7236H92.2197V11.7285C92.2197 12.1063 92.2895 12.4329 92.4287 12.708C92.5712 12.9831 92.7718 13.1956 93.0303 13.3447C93.2888 13.4938 93.5956 13.5684 93.9502 13.5684C94.1854 13.5683 94.4012 13.535 94.5967 13.4688C94.792 13.4025 94.9595 13.3033 95.0986 13.1709C95.2378 13.0384 95.3441 12.8758 95.417 12.6836L97.375 12.8125C97.2756 13.2831 97.0719 13.6946 96.7637 14.0459C96.4589 14.3936 96.0646 14.6649 95.5811 14.8604C95.1005 15.0526 94.5448 15.1494 93.915 15.1494C93.1296 15.1494 92.4535 14.99 91.8867 14.6719C91.3233 14.3504 90.8889 13.8962 90.584 13.3096C90.2791 12.7197 90.127 12.0221 90.127 11.2168C90.127 10.4313 90.2791 9.7417 90.584 9.14844C90.8889 8.55516 91.3186 8.09316 91.8721 7.76172C92.4289 7.4303 93.082 7.26465 93.8311 7.26465ZM93.8652 8.84473C93.5439 8.84475 93.2592 8.92027 93.0107 9.06934C92.7656 9.21512 92.5728 9.4117 92.4336 9.66016C92.3052 9.88636 92.2374 10.137 92.2246 10.4111H95.4268C95.4267 10.1062 95.3601 9.83589 95.2275 9.60059C95.095 9.36538 94.911 9.18136 94.6758 9.04883C94.4438 8.91297 94.1734 8.84473 93.8652 8.84473Z" fill="white"/>
<path d="M33.8506 11.9775C33.8472 12.6337 33.7087 13.199 33.4336 13.6729C33.1585 14.1434 32.774 14.5065 32.2803 14.7617C31.7897 15.0136 31.2174 15.1396 30.5645 15.1396C29.9681 15.1396 29.4312 15.0333 28.9541 14.8213C28.4801 14.6059 28.1036 14.2871 27.8252 13.8662C27.547 13.4454 27.4073 12.922 27.4072 12.2959H29.2422C29.2456 12.5708 29.305 12.8081 29.4209 13.0068C29.5402 13.2055 29.7044 13.3578 29.9131 13.4639C30.1218 13.5699 30.3622 13.623 30.6338 13.623C30.9288 13.623 31.1793 13.5611 31.3848 13.4385C31.5902 13.3125 31.7465 13.1271 31.8525 12.8818C31.9618 12.6367 32.0181 12.3352 32.0215 11.9775V4.81836H33.8506V11.9775Z" fill="white"/>
<path d="M37.5723 15H35.7725V7.36328H37.5723V15Z" fill="white"/>
<path d="M41.1826 8.66113H41.2725C41.4514 8.23034 41.7281 7.89015 42.1025 7.6416C42.4803 7.38986 42.9609 7.26469 43.5439 7.26465C44.0742 7.26465 44.5372 7.37559 44.9316 7.59766C45.3257 7.81963 45.6304 8.14413 45.8457 8.57129C46.0644 8.99883 46.1738 9.52126 46.1738 10.1377V15H44.374V10.416C44.374 9.90237 44.2417 9.50278 43.9766 9.21777C43.7147 8.92958 43.3469 8.78516 42.873 8.78516C42.5549 8.78516 42.2695 8.85494 42.0176 8.99414C41.7691 9.13 41.5741 9.32756 41.4316 9.58594C41.2925 9.84442 41.2227 10.1576 41.2227 10.5254V15H39.4229V4.81836H41.1826V8.66113Z" fill="white"/>
<path d="M69.1309 7.26465C69.6577 7.2647 70.1168 7.37721 70.5078 7.60254C70.9021 7.82791 71.2075 8.15456 71.4229 8.58203C71.6414 9.00948 71.7484 9.5281 71.7451 10.1377V15H69.9463V10.416C69.9463 9.90568 69.813 9.50609 69.5479 9.21777C69.286 8.92961 68.9229 8.78516 68.459 8.78516C68.1443 8.78521 67.8643 8.85502 67.6191 8.99414C67.3772 9.13 67.187 9.32751 67.0479 9.58594C66.912 9.84442 66.8438 10.1576 66.8438 10.5254V15H65.0439V7.36328H66.7637V8.66113H66.8535C67.0292 8.23363 67.3089 7.89348 67.6934 7.6416C68.0811 7.38971 68.5608 7.26465 69.1309 7.26465Z" fill="white"/>
<path d="M86.3555 7.26465C87.068 7.26465 87.6467 7.49127 88.0908 7.94531C88.5382 8.39605 88.7617 9.0357 88.7617 9.86426V15H86.6494V10.2822C86.6494 9.85805 86.5368 9.53927 86.3115 9.32715C86.0861 9.11503 85.8039 9.00879 85.4658 9.00879C85.0815 9.00881 84.7818 9.13189 84.5664 9.37695C84.351 9.6189 84.2432 9.93919 84.2432 10.3369V15H82.1895V10.2373C82.1895 9.86283 82.0816 9.56483 81.8662 9.34277C81.6541 9.12073 81.3743 9.00881 81.0264 9.00879C80.791 9.00879 80.5786 9.06916 80.3896 9.18848C80.2042 9.30447 80.0566 9.46866 79.9473 9.68066C79.838 9.88937 79.7832 10.1345 79.7832 10.416V15H77.665V7.36328H79.6836V8.71094H79.7734C79.9325 8.26349 80.1981 7.91087 80.5693 7.65234C80.9405 7.39388 81.3844 7.26465 81.9014 7.26465C82.425 7.26466 82.8704 7.39546 83.2383 7.65723C83.6062 7.91575 83.852 8.26681 83.9746 8.71094H84.0537C84.2095 8.27344 84.4917 7.92395 84.8994 7.66211C85.3103 7.39706 85.7955 7.2647 86.3555 7.26465Z" fill="white"/>
<path d="M36.6768 4.32617C36.9651 4.32617 37.2109 4.42202 37.4131 4.61426C37.6186 4.80318 37.7217 5.03389 37.7217 5.30566C37.7216 5.57392 37.6184 5.80396 37.4131 5.99609C37.2109 6.18501 36.9651 6.28027 36.6768 6.28027C36.3919 6.28018 36.1468 6.18492 35.9414 5.99609C35.7361 5.80396 35.6329 5.57394 35.6328 5.30566C35.6328 5.03388 35.7359 4.80318 35.9414 4.61426C36.1468 4.42215 36.3919 4.32627 36.6768 4.32617Z" fill="white"/>
<path d="M74.7334 12.7529C75.0514 12.7529 75.3298 12.8688 75.5684 13.1006C75.807 13.3326 75.9268 13.6117 75.9268 13.9365C75.9267 14.1551 75.8704 14.3559 75.7578 14.5381C75.6485 14.7169 75.504 14.8604 75.3252 14.9697C75.1462 15.0758 74.9488 15.1289 74.7334 15.1289C74.4054 15.1289 74.1239 15.0131 73.8887 14.7812C73.6568 14.546 73.5401 14.2645 73.54 13.9365C73.54 13.6117 73.6567 13.3326 73.8887 13.1006C74.1239 12.8688 74.4055 12.753 74.7334 12.7529Z" fill="#7678FF"/>
</svg>
