<svg width="85" height="76" viewBox="0 0 85 76" fill="none" xmlns="http://www.w3.org/2000/svg">
<path d="M85 42.5C85 55.919 78.7797 67.8834 69.0663 75.672C68.2565 76.3213 67.1241 75.3661 67.4723 74.3882C68.4614 71.6099 69 68.6179 69 65.5C69 50.8645 57.1355 39 42.5 39C27.8645 39 16 50.8645 16 65.5C16 68.618 16.5391 71.61 17.5285 74.3883C17.8767 75.3661 16.7444 76.3213 15.9346 75.672C6.22085 67.8836 -5.86574e-07 55.9193 0 42.5C1.026e-06 19.0279 19.0279 -1.026e-06 42.5 0C65.9721 1.026e-06 85 19.0279 85 42.5Z" fill="white"/>
</svg>
